<?xml version="1.0" encoding="UTF-8"?>
<svg version="1.1" xmlns="http://www.w3.org/2000/svg" width="56" height="53">
<path d="M0 0 C8.25 0 16.5 0 25 0 C26.14712908 3.44138725 25.81259293 4.45046221 24.8203125 7.8515625 C24.55089844 8.78484375 24.28148438 9.718125 24.00390625 10.6796875 C23.71386719 11.65164062 23.42382812 12.62359375 23.125 13.625 C22.84269531 14.6046875 22.56039062 15.584375 22.26953125 16.59375 C20.14849865 23.85150135 20.14849865 23.85150135 19 25 C17.07332493 25.08748207 15.14348139 25.10697334 13.21484375 25.09765625 C12.04501953 25.09443359 10.87519531 25.09121094 9.66992188 25.08789062 C7.82237305 25.07532227 7.82237305 25.07532227 5.9375 25.0625 C4.08415039 25.05573242 4.08415039 25.05573242 2.19335938 25.04882812 C-0.87114117 25.03699608 -3.93554721 25.02051173 -7 25 C-6.40045227 22.51963758 -5.7954684 20.04080027 -5.1875 17.5625 C-5.02185547 16.87478516 -4.85621094 16.18707031 -4.68554688 15.47851562 C-3.37847735 10.17625246 -1.74068655 5.22205966 0 0 Z " fill="#49B1F2" transform="translate(23,28)"/>
<path d="M0 0 C8.58 0 17.16 0 26 0 C24.7934512 6.03274401 23.62869146 11.70441856 21.9375 17.5625 C21.59589844 18.76003906 21.25429688 19.95757813 20.90234375 21.19140625 C20 24 20 24 19 25 C17.14630389 25.08737645 15.28932459 25.10698153 13.43359375 25.09765625 C12.30888672 25.09443359 11.18417969 25.09121094 10.02539062 25.08789062 C8.84138672 25.07951172 7.65738281 25.07113281 6.4375 25.0625 C5.24962891 25.05798828 4.06175781 25.05347656 2.83789062 25.04882812 C-0.10812226 25.03699675 -3.05403681 25.02051287 -6 25 C-5.46916164 18.80688582 -4.40474323 13.32035622 -2.4375 7.4375 C-1.633125 4.983125 -0.82875 2.52875 0 0 Z " fill="#1BE5C0" transform="translate(14,0)"/>
<path d="M0 0 C4.95 0 9.9 0 15 0 C14.15393802 5.92243383 13.15984041 9.64735202 11 15 C6.38 15 1.76 15 -3 15 C-2.49241226 9.41653484 -1.80998106 5.42994317 0 0 Z " fill="#43CBDF" transform="translate(6,28)"/>
<path d="M0 0 C4.62 0 9.24 0 14 0 C13.54241844 5.71976954 13.15327084 9.6168229 11 15 C6.05 15 1.1 15 -4 15 C-2.9940631 9.61105234 -2.04561354 5.11403386 0 0 Z " fill="#3BD1D9" transform="translate(39,10)"/>
<path d="M0 0 C8.25 0 16.5 0 25 0 C25.33 0.99 25.66 1.98 26 3 C25.01 4.485 25.01 4.485 24 6 C23.67 4.68 23.34 3.36 23 2 C11.615 1.505 11.615 1.505 0 1 C0 0.67 0 0.34 0 0 Z " fill="#6ED0EA" transform="translate(23,28)"/>
<path d="M0 0 C7.92 0 15.84 0 24 0 C24 0.33 24 0.66 24 1 C23.37955811 1.01458252 22.75911621 1.02916504 22.11987305 1.04418945 C19.30845367 1.11866588 16.49822251 1.21532564 13.6875 1.3125 C12.71103516 1.33505859 11.73457031 1.35761719 10.72851562 1.38085938 C9.32182617 1.4340332 9.32182617 1.4340332 7.88671875 1.48828125 C6.59060669 1.52755737 6.59060669 1.52755737 5.26831055 1.56762695 C2.59786013 2.07665372 1.68988817 2.92329908 0 5 C0 3.35 0 1.7 0 0 Z " fill="#1FBBDC" transform="translate(23,29)"/>
<path d="M0 0 C1.79244141 0.01740234 1.79244141 0.01740234 3.62109375 0.03515625 C5.41740234 0.04869141 5.41740234 0.04869141 7.25 0.0625 C8.17683594 0.07410156 9.10367187 0.08570312 10.05859375 0.09765625 C9.72859375 0.75765625 9.39859375 1.41765625 9.05859375 2.09765625 C8.02798828 2.02804688 8.02798828 2.02804688 6.9765625 1.95703125 C6.07550781 1.9209375 5.17445312 1.88484375 4.24609375 1.84765625 C2.90611328 1.77804688 2.90611328 1.77804688 1.5390625 1.70703125 C-1.10815334 1.85784592 -1.10815334 1.85784592 -2.765625 4.11328125 C-3.15363281 4.768125 -3.54164063 5.42296875 -3.94140625 6.09765625 C-3.98412725 4.4315372 -3.98204457 2.7638274 -3.94140625 1.09765625 C-2.94140625 0.09765625 -2.94140625 0.09765625 0 0 Z " fill="#14C9CD" transform="translate(9.94140625,28.90234375)"/>
<path d="M0 0 C4.29 0 8.58 0 13 0 C13 0.33 13 0.66 13 1 C12.31292969 1.04898437 11.62585937 1.09796875 10.91796875 1.1484375 C9.56638672 1.26058594 9.56638672 1.26058594 8.1875 1.375 C7.29417969 1.44460938 6.40085937 1.51421875 5.48046875 1.5859375 C2.75601501 1.86645036 2.75601501 1.86645036 0 4 C0 2.68 0 1.36 0 0 Z " fill="#17D3C6" transform="translate(39,11)"/>
<path d="M0 0 C-0.375 1.9375 -0.375 1.9375 -1 4 C-1.99 4.495 -1.99 4.495 -3 5 C-3 4.01 -3 3.02 -3 2 C-4.32 1.67 -5.64 1.34 -7 1 C-4.53721199 -0.231394 -2.7204945 -0.07159196 0 0 Z " fill="#21EDBB" transform="translate(40,0)"/>
</svg>
